<!DOCTYPE svg PUBLIC "-//W3C//DTD SVG 1.1//EN" "http://www.w3.org/Graphics/SVG/1.1/DTD/svg11.dtd">
<!-- Uploaded to: SVG Repo, www.svgrepo.com, Transformed by: SVG Repo Mixer Tools -->
<svg fill="#0c2428" width="64px" height="64px" viewBox="-46.08 -46.08 348.16 348.16" id="Flat" xmlns="http://www.w3.org/2000/svg" stroke="#0c2428" stroke-width="0.00256">
<g id="SVGRepo_bgCarrier" stroke-width="0" transform="translate(0,0), scale(1)">
<rect x="-46.08" y="-46.08" width="348.16" height="348.16" rx="174.08" fill="#f5a623" strokewidth="0"/>
</g>
<g id="SVGRepo_tracerCarrier" stroke-linecap="round" stroke-linejoin="round" stroke="#CCCCCC" stroke-width="2.048"/>
<g id="SVGRepo_iconCarrier"> <path d="M213.65723,181.65723l-32,32A8.00038,8.00038,0,0,1,168,208V184H48a8,8,0,0,1,0-16H168V144a8.00038,8.00038,0,0,1,13.65723-5.65723l32,32A8.00122,8.00122,0,0,1,213.65723,181.65723Zm-139.31446-64A8.00038,8.00038,0,0,0,88,112V88H208a8,8,0,0,0,0-16H88V48a8.00038,8.00038,0,0,0-13.65723-5.65723l-32,32a8.00122,8.00122,0,0,0,0,11.31446Z"/> </g>
</svg>